<svg xmlns="http://www.w3.org/2000/svg" xmlns:xlink="http://www.w3.org/1999/xlink" width="794" zoomAndPan="magnify" viewBox="0 0 595.5 842.249979" height="1123" preserveAspectRatio="xMidYMid meet" version="1.2"><defs><clipPath id="d51bb362c7"><path d="M 432 708 L 594.984375 708 L 594.984375 841.5 L 432 841.5 Z M 432 708 "/></clipPath><filter x="0%" y="0%" width="100%" filterUnits="objectBoundingBox" id="9de13334fe" height="100%"><feColorMatrix values="0 0 0 0 1 0 0 0 0 1 0 0 0 0 1 0 0 0 1 0" type="matrix" in="SourceGraphic"/></filter><clipPath id="93be68892d"><path d="M 0.183594 26 L 70 26 L 70 133.5 L 0.183594 133.5 Z M 0.183594 26 "/></clipPath><clipPath id="19b3fe2d80"><path d="M 40 0.394531 L 100 0.394531 L 100 133.5 L 40 133.5 Z M 40 0.394531 "/></clipPath><clipPath id="7f8cd71ddb"><path d="M 93 8 L 162.902344 8 L 162.902344 133.5 L 93 133.5 Z M 93 8 "/></clipPath><clipPath id="bad54e3a41"><rect x="0" width="163" y="0" height="134"/></clipPath><clipPath id="2845ab36b2"><path d="M 165 702 L 329 702 L 329 841.5 L 165 841.5 Z M 165 702 "/></clipPath><clipPath id="4d3bc7714f"><path d="M 0.300781 26 L 70 26 L 70 139.5 L 0.300781 139.5 Z M 0.300781 26 "/></clipPath><clipPath id="e800ae5900"><path d="M 40 1 L 100 1 L 100 139.5 L 40 139.5 Z M 40 1 "/></clipPath><clipPath id="bdf38c8983"><path d="M 93 8 L 163 8 L 163 139.5 L 93 139.5 Z M 93 8 "/></clipPath><clipPath id="dc087fe90b"><rect x="0" width="164" y="0" height="140"/></clipPath><clipPath id="3e2e3f4ba0"><path d="M 0.015625 718 L 164 718 L 164 841.5 L 0.015625 841.5 Z M 0.015625 718 "/></clipPath><clipPath id="d82a84e3bc"><path d="M 0.015625 26 L 70 26 L 70 123.5 L 0.015625 123.5 Z M 0.015625 26 "/></clipPath><clipPath id="1a7407673a"><path d="M 40 1 L 100 1 L 100 123.5 L 40 123.5 Z M 40 1 "/></clipPath><clipPath id="6be0bbf47a"><path d="M 92 8 L 162.730469 8 L 162.730469 123.5 L 92 123.5 Z M 92 8 "/></clipPath><clipPath id="e5a4884a9d"><rect x="0" width="164" y="0" height="124"/></clipPath><clipPath id="4cca09b5db"><path d="M 303 702 L 467 702 L 467 841.5 L 303 841.5 Z M 303 702 "/></clipPath><clipPath id="418e695c1f"><path d="M 0.125 26 L 70 26 L 70 139.5 L 0.125 139.5 Z M 0.125 26 "/></clipPath><clipPath id="fdda9a6c62"><path d="M 40 1 L 100 1 L 100 139.5 L 40 139.5 Z M 40 1 "/></clipPath><clipPath id="a32d3aa51d"><path d="M 92 8 L 162.84375 8 L 162.84375 139.5 L 92 139.5 Z M 92 8 "/></clipPath><clipPath id="456fed831c"><rect x="0" width="164" y="0" height="140"/></clipPath></defs><g id="f5ebe6e226"><g clip-rule="nonzero" clip-path="url(#d51bb362c7)"><g mask="url(#a3e40a2af2)" transform="matrix(1,0,0,1,432,708)"><g clip-path="url(#bad54e3a41)"><g clip-rule="nonzero" clip-path="url(#93be68892d)"><path style=" stroke:none;fill-rule:nonzero;fill:#b0bdfe;fill-opacity:1;" d="M 14.707031 142.898438 C 14.753906 124.886719 16.070312 108.773438 18.660156 94.5625 C 16.328125 87.839844 15.117188 83.914062 15.023438 82.792969 C 14.636719 81.71875 14.433594 78.417969 14.40625 72.898438 C 14.316406 71.980469 14.121094 71.15625 13.816406 70.421875 C 10.90625 65.652344 6.976562 60.503906 2.03125 54.96875 C 0.804688 52.808594 0.257812 50.695312 0.390625 48.628906 C 0.535156 46.332031 1.472656 45.738281 3.191406 46.855469 C 5.117188 47.5625 9.363281 51.574219 15.921875 58.894531 C 16.925781 59.746094 17.535156 60.050781 17.75 59.804688 L 12.703125 36.746094 C 12.78125 32.199219 13.96875 29.621094 16.261719 29.015625 C 17.183594 29.304688 17.9375 30.398438 18.527344 32.304688 C 22.230469 43.914062 24.105469 50.46875 24.148438 51.96875 C 24.777344 53.84375 25.230469 54.792969 25.503906 54.808594 L 23.265625 30.320312 C 23.1875 27.726562 23.875 26.316406 25.328125 26.097656 C 27.03125 25.6875 28.828125 28.542969 30.707031 34.660156 C 31.421875 36.214844 32.402344 42.09375 33.648438 52.296875 C 33.988281 53.789062 34.351562 54.5 34.734375 54.433594 C 35.394531 54.300781 35.953125 53.492188 36.410156 52.011719 C 36.921875 44.960938 38.195312 38.878906 40.242188 33.773438 C 42.105469 29.878906 43.628906 28.886719 44.820312 30.792969 C 45.464844 31.488281 46.003906 34.410156 46.4375 39.5625 C 46.179688 51.453125 46.285156 58.820312 46.757812 61.65625 C 47.265625 64.945312 48.589844 67.621094 50.730469 69.679688 C 52.066406 70.941406 53.597656 71.128906 55.324219 70.242188 L 67.324219 62.242188 C 68.714844 61.878906 69.546875 62.316406 69.824219 63.546875 C 69.96875 64.613281 69.777344 65.6875 69.257812 66.769531 C 67.164062 69.066406 64.578125 73.320312 61.5 79.535156 C 60.671875 81.191406 56.476562 85.078125 48.914062 91.199219 C 47.542969 92.621094 46.621094 94.195312 46.144531 95.925781 C 45.382812 115.640625 46.320312 130.691406 48.953125 141.078125 Z M 14.707031 142.898438 "/></g><g clip-rule="nonzero" clip-path="url(#19b3fe2d80)"><path style=" stroke:none;fill-rule:nonzero;fill:#fef49a;fill-opacity:1;" d="M 57.339844 137.742188 C 57.621094 133.082031 57.996094 128.992188 58.472656 125.46875 C 61.160156 110.441406 62.871094 98.867188 63.609375 90.75 C 64.21875 84.558594 64.292969 79.378906 63.832031 75.207031 C 64.429688 74.601562 61.800781 66.878906 55.945312 52.03125 L 42.890625 31.824219 C 41.523438 29.339844 40.816406 27.160156 40.757812 25.273438 C 40.960938 22.160156 42.460938 21.441406 45.265625 23.113281 C 46.472656 23.394531 48.996094 26.644531 52.835938 32.867188 C 50.125 26.953125 48.339844 22.011719 47.476562 18.042969 C 46.53125 12.695312 46.730469 9.980469 48.085938 9.894531 C 51.707031 11.492188 55.082031 16.847656 58.214844 25.957031 C 55.222656 20.222656 53.5625 15.808594 53.230469 12.710938 C 52.085938 4.550781 52.554688 0.585938 54.632812 0.808594 C 55.988281 1.027344 57.527344 2.671875 59.261719 5.75 C 64.101562 17.726562 67.734375 25.953125 70.15625 30.425781 L 66.265625 16.855469 C 65.746094 14.929688 65.398438 13.214844 65.222656 11.703125 C 64.734375 7.648438 65.394531 5.105469 67.203125 4.070312 C 69.058594 3.300781 71.199219 4.953125 73.628906 9.03125 C 77.085938 15.167969 80.769531 23.394531 84.683594 33.714844 C 85.53125 35.4375 86.425781 36.65625 87.367188 37.375 C 87.777344 37.582031 87.953125 37.410156 87.890625 36.863281 C 86.832031 33.515625 86.417969 31.300781 86.652344 30.210938 C 86.824219 28.378906 87.421875 26.539062 88.4375 24.6875 C 91.730469 18.582031 94.449219 16.820312 96.59375 19.398438 C 97.566406 22.671875 97.585938 27.765625 96.652344 34.671875 C 96.574219 35.015625 97.496094 39.242188 99.410156 47.351562 C 99.671875 48.585938 99.773438 49.75 99.722656 50.851562 C 99.675781 51.945312 99.507812 52.972656 99.21875 53.933594 C 96.914062 59.425781 95.667969 63.085938 95.480469 64.910156 C 93.855469 74.253906 93.050781 79.753906 93.066406 81.402344 L 91.695312 115.851562 C 91.316406 130.433594 91.625 138.351562 92.628906 139.613281 Z M 57.339844 137.742188 "/></g><g clip-rule="nonzero" clip-path="url(#7f8cd71ddb)"><path style=" stroke:none;fill-rule:nonzero;fill:#ffc0bd;fill-opacity:1;" d="M 119.960938 138.847656 C 120.335938 128.453125 120.015625 117.449219 119.003906 105.839844 L 119.257812 91.855469 C 119.195312 89.070312 118.886719 86.855469 118.332031 85.207031 C 117.585938 83.035156 116.355469 81.351562 114.636719 80.152344 C 103.238281 74.054688 97.433594 70.457031 97.222656 69.363281 C 94.179688 65.585938 92.789062 62.082031 93.050781 58.855469 C 93.195312 57.175781 94.042969 56.257812 95.59375 56.101562 C 95.769531 55.492188 99.179688 56.777344 105.832031 59.949219 C 107.046875 60.167969 108 59.496094 108.695312 57.941406 C 109.644531 55.277344 110.253906 52.308594 110.523438 49.03125 C 110.625 32.453125 110.929688 23.621094 111.441406 22.527344 C 112.089844 17.832031 113.144531 14.996094 114.609375 14.019531 C 116.359375 13.257812 117.921875 14.640625 119.304688 18.167969 C 119.625 18.625 120.671875 21.8125 122.4375 27.730469 C 122.691406 28.269531 123.464844 31.707031 124.761719 38.042969 C 124.992188 38.972656 125.179688 39.28125 125.328125 38.960938 L 125.214844 24.738281 C 125.308594 22.386719 125.496094 20.460938 125.785156 18.957031 C 127.207031 12.539062 129.019531 8.996094 131.222656 8.328125 C 133.636719 7.945312 134.148438 18.496094 132.753906 39.980469 C 132.351562 28.167969 135.5 19.554688 142.199219 14.144531 C 143.496094 13.15625 144.148438 15.589844 144.148438 21.445312 C 144.324219 24.78125 143.726562 31.8125 142.355469 42.535156 C 146.910156 35.160156 150.582031 30.738281 153.371094 29.269531 C 158.191406 26.457031 161.285156 26.523438 162.644531 29.476562 C 162.820312 31.4375 162.351562 33.308594 161.234375 35.089844 C 161.175781 35.972656 157.171875 41.335938 149.21875 51.171875 C 147.425781 54.054688 146.511719 56.59375 146.472656 58.792969 L 146.714844 69.628906 C 145.609375 81.226562 145.308594 87.527344 145.808594 88.53125 L 153.3125 122.492188 C 154.699219 129.230469 155.585938 135.273438 155.976562 140.625 Z M 119.960938 138.847656 "/></g><path style=" stroke:none;fill-rule:nonzero;fill:#fea6c4;fill-opacity:1;" d="M 121.480469 45.285156 L 120.824219 45.347656 C 120.058594 45.496094 119.339844 45.90625 118.664062 46.578125 C 118.328125 46.914062 118.003906 47.3125 117.6875 47.78125 L 117.222656 48.53125 C 116.917969 49.0625 116.628906 49.660156 116.347656 50.324219 C 115.945312 51.34375 115.664062 52.394531 115.5 53.476562 C 115.308594 54.269531 115.292969 55.667969 115.449219 57.679688 C 115.84375 60.613281 116.695312 63.195312 118 65.417969 C 119.554688 67.9375 120.695312 69.566406 121.417969 70.300781 C 122.878906 71.828125 123.929688 72.542969 124.566406 72.441406 C 125.246094 72.402344 126.15625 71.847656 127.304688 70.773438 C 130.757812 67.226562 134.238281 63.289062 137.738281 58.964844 C 138.429688 58.035156 138.875 57.394531 139.074219 57.042969 C 139.207031 56.871094 139.402344 56.46875 139.652344 55.839844 L 140.09375 53.335938 C 140.140625 52.90625 140.140625 52.398438 140.085938 51.816406 C 139.871094 50.199219 139.304688 48.984375 138.390625 48.167969 C 137.472656 47.339844 136.394531 47.015625 135.152344 47.203125 C 134.515625 47.28125 133.867188 47.496094 133.214844 47.847656 C 132.886719 48.023438 132.558594 48.234375 132.226562 48.480469 C 132.066406 48.558594 131.5625 49.003906 130.726562 49.816406 C 130.453125 50.050781 130.019531 50.726562 129.414062 51.835938 C 129.109375 52.519531 128.917969 53.089844 128.835938 53.550781 C 127.40625 50.382812 126.152344 48.296875 125.070312 47.292969 C 124.441406 46.605469 123.734375 46.03125 122.949219 45.570312 C 122.226562 45.339844 121.738281 45.246094 121.480469 45.285156 "/><path style=" stroke:none;fill-rule:nonzero;fill:#fea6c4;fill-opacity:1;" d="M 64.886719 35.660156 L 64.371094 35.699219 C 62.785156 35.980469 61.738281 37.464844 61.238281 40.148438 C 60.984375 41.964844 60.945312 43.246094 61.113281 43.988281 C 61.242188 44.992188 61.496094 45.980469 61.882812 46.953125 C 63.21875 49.902344 64.753906 52.324219 66.484375 54.21875 C 68.21875 56.105469 70.175781 57.875 72.355469 59.53125 C 73.066406 59.988281 73.691406 60.21875 74.230469 60.222656 C 74.570312 60.175781 74.871094 59.984375 75.125 59.648438 L 77.121094 56.457031 C 78.453125 54.199219 79.5 52.066406 80.257812 50.058594 C 81.738281 45.886719 82.117188 42.742188 81.402344 40.628906 C 80.875 39.523438 80.292969 38.777344 79.652344 38.378906 C 79.324219 38.15625 78.964844 38 78.582031 37.902344 C 78.421875 37.777344 77.789062 37.777344 76.683594 37.90625 C 75.628906 38.105469 74.753906 38.652344 74.046875 39.550781 C 73.449219 40.285156 72.984375 41.285156 72.652344 42.558594 C 71.5625 40.570312 70.191406 38.800781 68.542969 37.25 C 67.902344 36.742188 67.304688 36.355469 66.753906 36.089844 C 66.601562 35.984375 66.210938 35.851562 65.582031 35.695312 C 65.339844 35.652344 65.105469 35.640625 64.886719 35.660156 "/><path style=" stroke:none;fill-rule:nonzero;fill:#fea6c4;fill-opacity:1;" d="M 36.914062 62.320312 L 36.78125 62.320312 C 36.496094 62.34375 36.207031 62.410156 35.914062 62.519531 C 35.175781 62.875 34.730469 63.144531 34.574219 63.324219 C 33.96875 63.816406 33.351562 64.492188 32.71875 65.347656 C 31.691406 66.839844 30.96875 68.578125 30.546875 70.570312 C 29.441406 68.671875 28.398438 67.222656 27.421875 66.222656 C 25.972656 64.929688 24.859375 64.257812 24.070312 64.210938 C 22.320312 64.246094 20.945312 65.832031 19.941406 68.964844 C 19.640625 70.503906 19.753906 72.285156 20.28125 74.3125 C 20.457031 75.25 21.300781 76.996094 22.8125 79.542969 C 23.9375 81.292969 25.859375 83.441406 28.582031 85.992188 C 29.195312 86.601562 30.023438 87.214844 31.0625 87.824219 C 31.625 88.109375 32.105469 88.230469 32.511719 88.191406 C 33.101562 88.199219 33.632812 87.949219 34.105469 87.441406 C 34.363281 87.261719 35.042969 86.117188 36.148438 84.007812 C 37.570312 81.1875 38.507812 79.25 38.953125 78.199219 C 39.839844 75.925781 40.394531 74.070312 40.621094 72.625 C 41.097656 70.066406 40.871094 67.535156 39.945312 65.027344 C 39.527344 64.101562 39.257812 63.601562 39.140625 63.523438 C 38.9375 63.253906 38.71875 63.03125 38.488281 62.855469 C 38.023438 62.496094 37.5 62.320312 36.914062 62.320312 "/></g><mask id="a3e40a2af2"><g filter="url(#9de13334fe)"><rect x="0" width="595.5" y="0" height="842.249979" style="fill:#000000;fill-opacity:0.45;stroke:none;"/></g></mask></g></g><g clip-rule="nonzero" clip-path="url(#2845ab36b2)"><g mask="url(#9ea17a109f)" transform="matrix(1,0,0,1,165,702)"><g clip-path="url(#dc087fe90b)"><g clip-rule="nonzero" clip-path="url(#4d3bc7714f)"><path style=" stroke:none;fill-rule:nonzero;fill:#b0bdfe;fill-opacity:1;" d="M 14.824219 143.15625 C 14.871094 125.140625 16.1875 109.027344 18.777344 94.820312 C 16.441406 88.09375 15.230469 84.171875 15.140625 83.050781 C 14.753906 81.972656 14.546875 78.675781 14.519531 73.15625 C 14.429688 72.238281 14.234375 71.410156 13.933594 70.675781 C 11.019531 65.910156 7.09375 60.757812 2.148438 55.222656 C 0.921875 53.0625 0.375 50.949219 0.503906 48.886719 C 0.652344 46.585938 1.585938 45.996094 3.308594 47.109375 C 5.234375 47.816406 9.476562 51.828125 16.039062 59.148438 C 17.042969 60 17.652344 60.304688 17.867188 60.058594 L 12.820312 37.003906 C 12.898438 32.453125 14.085938 29.875 16.378906 29.273438 C 17.300781 29.558594 18.054688 30.65625 18.640625 32.558594 C 22.347656 44.171875 24.222656 50.726562 24.265625 52.222656 C 24.894531 54.101562 25.34375 55.046875 25.621094 55.0625 L 23.382812 30.578125 C 23.300781 27.980469 23.988281 26.574219 25.445312 26.351562 C 27.148438 25.945312 28.941406 28.796875 30.824219 34.914062 C 31.539062 36.472656 32.519531 42.351562 33.765625 52.550781 C 34.105469 54.042969 34.46875 54.753906 34.851562 54.6875 C 35.511719 54.554688 36.066406 53.75 36.527344 52.269531 C 37.035156 45.214844 38.3125 39.136719 40.355469 34.027344 C 42.21875 30.132812 43.746094 29.140625 44.9375 31.050781 C 45.578125 31.742188 46.117188 34.664062 46.554688 39.820312 C 46.296875 51.710938 46.402344 59.074219 46.871094 61.910156 C 47.378906 65.199219 48.707031 67.875 50.847656 69.9375 C 52.183594 71.199219 53.714844 71.386719 55.441406 70.496094 L 67.441406 62.5 C 68.828125 62.136719 69.660156 62.570312 69.9375 63.800781 C 70.082031 64.867188 69.894531 65.941406 69.371094 67.023438 C 67.28125 69.320312 64.695312 73.578125 61.617188 79.792969 C 60.789062 81.445312 56.589844 85.332031 49.027344 91.453125 C 47.660156 92.875 46.734375 94.453125 46.261719 96.179688 C 45.5 115.898438 46.433594 130.949219 49.070312 141.332031 Z M 14.824219 143.15625 "/></g><g clip-rule="nonzero" clip-path="url(#e800ae5900)"><path style=" stroke:none;fill-rule:nonzero;fill:#fef49a;fill-opacity:1;" d="M 57.457031 137.996094 C 57.734375 133.335938 58.113281 129.246094 58.589844 125.726562 C 61.273438 110.695312 62.988281 99.125 63.726562 91.003906 C 64.335938 84.8125 64.40625 79.632812 63.949219 75.464844 C 64.542969 74.859375 61.914062 67.132812 56.058594 52.289062 L 43.007812 32.078125 C 41.640625 29.597656 40.929688 27.414062 40.875 25.53125 C 41.074219 22.417969 42.578125 21.695312 45.382812 23.371094 C 46.589844 23.652344 49.113281 26.902344 52.953125 33.121094 C 50.242188 27.207031 48.457031 22.265625 47.59375 18.296875 C 46.644531 12.953125 46.847656 10.238281 48.199219 10.152344 C 51.824219 11.746094 55.199219 17.101562 58.328125 26.214844 C 55.339844 20.480469 53.675781 16.0625 53.347656 12.964844 C 52.203125 4.804688 52.667969 0.839844 54.75 1.066406 C 56.101562 1.28125 57.644531 2.929688 59.375 6.007812 C 64.21875 17.984375 67.847656 26.207031 70.269531 30.679688 L 66.378906 17.109375 C 65.863281 15.1875 65.515625 13.46875 65.339844 11.960938 C 64.851562 7.902344 65.511719 5.359375 67.320312 4.328125 C 69.171875 3.558594 71.316406 5.210938 73.746094 9.285156 C 77.203125 15.421875 80.886719 23.652344 84.800781 33.96875 C 85.648438 35.691406 86.542969 36.914062 87.480469 37.632812 C 87.894531 37.839844 88.070312 37.667969 88.007812 37.117188 C 86.949219 33.773438 86.535156 31.554688 86.769531 30.464844 C 86.941406 28.636719 87.535156 26.792969 88.554688 24.941406 C 91.847656 18.835938 94.566406 17.074219 96.710938 19.652344 C 97.683594 22.929688 97.703125 28.019531 96.765625 34.929688 C 96.691406 35.273438 97.609375 39.5 99.527344 47.609375 C 99.785156 48.839844 99.890625 50.007812 99.839844 51.105469 C 99.789062 52.199219 99.621094 53.226562 99.335938 54.1875 C 97.03125 59.679688 95.78125 63.339844 95.59375 65.167969 C 93.96875 74.511719 93.164062 80.007812 93.179688 81.65625 L 91.8125 116.105469 C 91.429688 130.6875 91.742188 138.609375 92.746094 139.867188 Z M 57.457031 137.996094 "/></g><g clip-rule="nonzero" clip-path="url(#bdf38c8983)"><path style=" stroke:none;fill-rule:nonzero;fill:#ffc0bd;fill-opacity:1;" d="M 120.078125 139.105469 C 120.453125 128.707031 120.132812 117.707031 119.121094 106.097656 L 119.375 92.113281 C 119.308594 89.324219 119 87.109375 118.445312 85.464844 C 117.703125 83.292969 116.46875 81.605469 114.753906 80.40625 C 103.355469 74.308594 97.550781 70.714844 97.339844 69.617188 C 94.296875 65.839844 92.90625 62.339844 93.167969 59.113281 C 93.308594 57.429688 94.160156 56.511719 95.710938 56.359375 C 95.886719 55.75 99.296875 57.03125 105.949219 60.207031 C 107.160156 60.421875 108.117188 59.75 108.8125 58.195312 C 109.761719 55.53125 110.371094 52.5625 110.636719 49.285156 C 110.738281 32.710938 111.046875 23.875 111.558594 22.785156 C 112.203125 18.089844 113.261719 15.25 114.726562 14.273438 C 116.472656 13.511719 118.039062 14.894531 119.417969 18.421875 C 119.742188 18.878906 120.785156 22.066406 122.554688 27.988281 C 122.804688 28.527344 123.582031 31.960938 124.878906 38.296875 C 125.105469 39.230469 125.296875 39.535156 125.441406 39.214844 L 125.332031 24.992188 C 125.421875 22.644531 125.613281 20.714844 125.902344 19.210938 C 127.324219 12.792969 129.136719 9.25 131.339844 8.582031 C 133.753906 8.203125 134.265625 18.753906 132.871094 40.238281 C 132.464844 28.425781 135.613281 19.8125 142.316406 14.398438 C 143.613281 13.410156 144.261719 15.84375 144.265625 21.699219 C 144.441406 25.039062 143.84375 32.066406 142.46875 42.792969 C 147.027344 35.414062 150.699219 30.992188 153.484375 29.527344 C 158.308594 26.710938 161.398438 26.777344 162.761719 29.730469 C 162.9375 31.691406 162.46875 33.5625 161.351562 35.34375 C 161.292969 36.230469 157.285156 41.589844 149.332031 51.429688 C 147.542969 54.308594 146.628906 56.851562 146.589844 59.050781 L 146.828125 69.886719 C 145.726562 81.480469 145.421875 87.78125 145.921875 88.789062 L 153.429688 122.75 C 154.816406 129.488281 155.703125 135.53125 156.089844 140.878906 Z M 120.078125 139.105469 "/></g><path style=" stroke:none;fill-rule:nonzero;fill:#fea6c4;fill-opacity:1;" d="M 121.59375 45.539062 L 120.941406 45.601562 C 120.175781 45.75 119.457031 46.160156 118.78125 46.832031 C 118.445312 47.167969 118.117188 47.570312 117.804688 48.035156 L 117.339844 48.785156 C 117.035156 49.320312 116.742188 49.917969 116.460938 50.582031 C 116.058594 51.597656 115.777344 52.648438 115.617188 53.730469 C 115.425781 54.523438 115.410156 55.925781 115.566406 57.933594 C 115.960938 60.871094 116.8125 63.449219 118.113281 65.675781 C 119.671875 68.195312 120.808594 69.820312 121.535156 70.554688 C 122.996094 72.082031 124.046875 72.796875 124.679688 72.699219 C 125.359375 72.660156 126.273438 72.101562 127.421875 71.027344 C 130.875 67.480469 134.351562 63.542969 137.855469 59.21875 C 138.546875 58.289062 138.992188 57.648438 139.1875 57.296875 C 139.324219 57.125 139.515625 56.726562 139.769531 56.097656 L 140.207031 53.59375 C 140.257812 53.160156 140.253906 52.65625 140.203125 52.074219 C 139.984375 50.453125 139.421875 49.238281 138.507812 48.425781 C 137.589844 47.59375 136.511719 47.273438 135.269531 47.457031 C 134.628906 47.535156 133.984375 47.75 133.332031 48.105469 C 133.003906 48.28125 132.675781 48.492188 132.34375 48.734375 C 132.179688 48.816406 131.679688 49.261719 130.839844 50.070312 C 130.570312 50.308594 130.132812 50.980469 129.53125 52.089844 C 129.226562 52.773438 129.03125 53.34375 128.949219 53.804688 C 127.523438 50.636719 126.269531 48.554688 125.1875 47.546875 C 124.558594 46.859375 123.851562 46.285156 123.0625 45.824219 C 122.34375 45.597656 121.851562 45.5 121.59375 45.539062 "/><path style=" stroke:none;fill-rule:nonzero;fill:#fea6c4;fill-opacity:1;" d="M 65 35.914062 L 64.488281 35.953125 C 62.898438 36.234375 61.855469 37.71875 61.351562 40.40625 C 61.101562 42.222656 61.058594 43.5 61.230469 44.246094 C 61.355469 45.25 61.613281 46.238281 62 47.207031 C 63.335938 50.160156 64.867188 52.582031 66.597656 54.476562 C 68.335938 56.359375 70.292969 58.132812 72.472656 59.785156 C 73.179688 60.246094 73.804688 60.476562 74.34375 60.476562 C 74.6875 60.429688 74.984375 60.238281 75.242188 59.902344 L 77.234375 56.710938 C 78.570312 54.457031 79.613281 52.324219 80.375 50.3125 C 81.851562 46.144531 82.234375 43 81.519531 40.882812 C 80.992188 39.78125 80.40625 39.03125 79.769531 38.636719 C 79.4375 38.414062 79.082031 38.253906 78.699219 38.160156 C 78.539062 38.03125 77.90625 38.03125 76.800781 38.160156 C 75.746094 38.359375 74.867188 38.90625 74.164062 39.804688 C 73.5625 40.539062 73.097656 41.542969 72.769531 42.8125 C 71.679688 40.824219 70.308594 39.054688 68.660156 37.507812 C 68.019531 37 67.421875 36.609375 66.871094 36.34375 C 66.71875 36.238281 66.328125 36.109375 65.699219 35.949219 C 65.457031 35.90625 65.222656 35.894531 65 35.914062 "/><path style=" stroke:none;fill-rule:nonzero;fill:#fea6c4;fill-opacity:1;" d="M 37.03125 62.574219 L 36.894531 62.578125 C 36.609375 62.597656 36.320312 62.664062 36.03125 62.773438 C 35.292969 63.132812 34.847656 63.398438 34.691406 63.578125 C 34.085938 64.074219 33.46875 64.746094 32.835938 65.601562 C 31.808594 67.09375 31.085938 68.835938 30.664062 70.824219 C 29.554688 68.925781 28.515625 67.480469 27.535156 66.476562 C 26.089844 65.183594 24.972656 64.515625 24.1875 64.464844 C 22.4375 64.503906 21.058594 66.089844 20.054688 69.222656 C 19.757812 70.757812 19.871094 72.542969 20.394531 74.566406 C 20.570312 75.507812 21.417969 77.25 22.929688 79.800781 C 24.054688 81.546875 25.976562 83.695312 28.699219 86.246094 C 29.3125 86.859375 30.140625 87.46875 31.175781 88.082031 C 31.738281 88.367188 32.222656 88.488281 32.628906 88.445312 C 33.21875 88.453125 33.75 88.203125 34.222656 87.695312 C 34.476562 87.519531 35.160156 86.375 36.265625 84.261719 C 37.6875 81.441406 38.621094 79.503906 39.070312 78.453125 C 39.953125 76.179688 40.507812 74.324219 40.734375 72.882812 C 41.210938 70.324219 40.988281 67.789062 40.058594 65.285156 C 39.644531 64.359375 39.375 63.855469 39.253906 63.777344 C 39.054688 63.511719 38.835938 63.289062 38.605469 63.109375 C 38.140625 62.753906 37.617188 62.574219 37.03125 62.574219 "/></g><mask id="9ea17a109f"><g filter="url(#9de13334fe)"><rect x="0" width="595.5" y="0" height="842.249979" style="fill:#000000;fill-opacity:0.45;stroke:none;"/></g></mask></g></g><g clip-rule="nonzero" clip-path="url(#3e2e3f4ba0)"><g mask="url(#ea72d2e561)" transform="matrix(1,0,0,1,-0.000000000000000002,718)"><g clip-path="url(#e5a4884a9d)"><g clip-rule="nonzero" clip-path="url(#d82a84e3bc)"><path style=" stroke:none;fill-rule:nonzero;fill:#b0bdfe;fill-opacity:1;" d="M 14.535156 143.257812 C 14.582031 125.242188 15.898438 109.132812 18.488281 94.921875 C 16.15625 88.195312 14.945312 84.273438 14.855469 83.152344 C 14.46875 82.074219 14.261719 78.777344 14.234375 73.257812 C 14.144531 72.339844 13.949219 71.511719 13.644531 70.78125 C 10.734375 66.011719 6.804688 60.859375 1.859375 55.324219 C 0.636719 53.164062 0.0859375 51.054688 0.21875 48.988281 C 0.367188 46.6875 1.300781 46.097656 3.019531 47.214844 C 4.945312 47.917969 9.191406 51.933594 15.75 59.25 C 16.753906 60.105469 17.363281 60.40625 17.578125 60.160156 L 12.53125 37.105469 C 12.609375 32.554688 13.796875 29.980469 16.089844 29.375 C 17.011719 29.664062 17.765625 30.757812 18.355469 32.660156 C 22.058594 44.273438 23.933594 50.828125 23.980469 52.324219 C 24.605469 54.203125 25.058594 55.148438 25.335938 55.167969 L 23.09375 30.679688 C 23.015625 28.085938 23.703125 26.675781 25.15625 26.457031 C 26.863281 26.046875 28.65625 28.902344 30.539062 35.019531 C 31.25 36.574219 32.230469 42.453125 33.476562 52.65625 C 33.816406 54.144531 34.179688 54.859375 34.566406 54.792969 C 35.222656 54.660156 35.78125 53.851562 36.238281 52.371094 C 36.75 45.320312 38.027344 39.238281 40.070312 34.128906 C 41.933594 30.238281 43.460938 29.246094 44.648438 31.152344 C 45.292969 31.84375 45.832031 34.769531 46.265625 39.921875 C 46.007812 51.8125 46.117188 59.175781 46.585938 62.011719 C 47.09375 65.304688 48.417969 67.980469 50.558594 70.039062 C 51.894531 71.300781 53.425781 71.488281 55.15625 70.597656 L 67.152344 62.601562 C 68.542969 62.238281 69.375 62.671875 69.652344 63.90625 C 69.796875 64.972656 69.605469 66.046875 69.085938 67.125 C 66.992188 69.421875 64.40625 73.679688 61.332031 79.894531 C 60.5 81.546875 56.304688 85.4375 48.742188 91.554688 C 47.371094 92.980469 46.449219 94.554688 45.972656 96.28125 C 45.210938 116 46.148438 131.050781 48.78125 141.433594 Z M 14.535156 143.257812 "/></g><g clip-rule="nonzero" clip-path="url(#1a7407673a)"><path style=" stroke:none;fill-rule:nonzero;fill:#fef49a;fill-opacity:1;" d="M 57.167969 138.097656 C 57.449219 133.4375 57.824219 129.347656 58.300781 125.828125 C 60.988281 110.800781 62.699219 99.226562 63.441406 91.105469 C 64.046875 84.914062 64.121094 79.734375 63.660156 75.566406 C 64.257812 74.960938 61.628906 67.234375 55.773438 52.390625 L 42.71875 32.179688 C 41.355469 29.699219 40.644531 27.515625 40.589844 25.632812 C 40.789062 22.519531 42.292969 21.800781 45.09375 23.472656 C 46.300781 23.753906 48.824219 27.003906 52.664062 33.226562 C 49.953125 27.3125 48.167969 22.367188 47.304688 18.398438 C 46.359375 13.054688 46.5625 10.339844 47.914062 10.253906 C 51.535156 11.851562 54.914062 17.203125 58.042969 26.316406 C 55.050781 20.582031 53.390625 16.164062 53.058594 13.066406 C 51.914062 4.910156 52.382812 0.941406 54.460938 1.167969 C 55.816406 1.382812 57.355469 3.03125 59.089844 6.109375 C 63.929688 18.085938 67.5625 26.308594 69.984375 30.78125 L 66.09375 17.214844 C 65.574219 15.289062 65.226562 13.570312 65.050781 12.0625 C 64.5625 8.007812 65.222656 5.460938 67.03125 4.429688 C 68.886719 3.660156 71.027344 5.3125 73.460938 9.386719 C 76.914062 15.527344 80.597656 23.753906 84.511719 34.070312 C 85.359375 35.792969 86.253906 37.015625 87.195312 37.734375 C 87.609375 37.941406 87.78125 37.769531 87.71875 37.21875 C 86.660156 33.875 86.246094 31.65625 86.480469 30.570312 C 86.652344 28.738281 87.25 26.898438 88.265625 25.046875 C 91.558594 18.941406 94.277344 17.179688 96.421875 19.757812 C 97.394531 23.03125 97.414062 28.125 96.480469 35.03125 C 96.402344 35.375 97.324219 39.601562 99.238281 47.710938 C 99.5 48.945312 99.601562 50.109375 99.554688 51.210938 C 99.503906 52.304688 99.335938 53.332031 99.046875 54.289062 C 96.742188 59.78125 95.496094 63.441406 95.308594 65.269531 C 93.683594 74.613281 92.878906 80.109375 92.894531 81.757812 L 91.523438 116.210938 C 91.144531 130.792969 91.453125 138.710938 92.457031 139.96875 Z M 57.167969 138.097656 "/></g><g clip-rule="nonzero" clip-path="url(#6be0bbf47a)"><path style=" stroke:none;fill-rule:nonzero;fill:#ffc0bd;fill-opacity:1;" d="M 119.789062 139.207031 C 120.164062 128.8125 119.84375 117.808594 118.832031 106.199219 L 119.085938 92.214844 C 119.023438 89.429688 118.714844 87.210938 118.160156 85.566406 C 117.414062 83.394531 116.183594 81.710938 114.464844 80.511719 C 103.066406 74.414062 97.261719 70.816406 97.050781 69.722656 C 94.011719 65.941406 92.617188 62.441406 92.878906 59.214844 C 93.023438 57.53125 93.871094 56.617188 95.425781 56.460938 C 95.597656 55.851562 99.011719 57.132812 105.660156 60.308594 C 106.875 60.523438 107.828125 59.855469 108.523438 58.300781 C 109.472656 55.636719 110.082031 52.664062 110.351562 49.386719 C 110.453125 32.8125 110.757812 23.976562 111.269531 22.886719 C 111.917969 18.191406 112.972656 15.355469 114.4375 14.378906 C 116.1875 13.613281 117.75 14.996094 119.132812 18.523438 C 119.453125 18.980469 120.5 22.171875 122.269531 28.089844 C 122.519531 28.628906 123.292969 32.066406 124.589844 38.402344 C 124.820312 39.332031 125.007812 39.636719 125.15625 39.320312 L 125.042969 25.097656 C 125.136719 22.746094 125.328125 20.820312 125.613281 19.316406 C 127.035156 12.898438 128.847656 9.355469 131.050781 8.683594 C 133.464844 8.304688 133.976562 18.855469 132.582031 40.339844 C 132.179688 28.527344 135.328125 19.914062 142.027344 14.503906 C 143.328125 13.511719 143.976562 15.945312 143.980469 21.800781 C 144.15625 25.140625 143.554688 32.171875 142.183594 42.894531 C 146.738281 35.515625 150.410156 31.09375 153.199219 29.628906 C 158.019531 26.8125 161.113281 26.882812 162.472656 29.835938 C 162.648438 31.796875 162.179688 33.664062 161.0625 35.445312 C 161.003906 36.332031 157 41.695312 149.046875 51.53125 C 147.257812 54.410156 146.339844 56.953125 146.304688 59.152344 L 146.542969 69.988281 C 145.4375 81.585938 145.136719 87.886719 145.636719 88.890625 L 153.140625 122.851562 C 154.527344 129.589844 155.417969 135.632812 155.804688 140.980469 Z M 119.789062 139.207031 "/></g><path style=" stroke:none;fill-rule:nonzero;fill:#fea6c4;fill-opacity:1;" d="M 121.308594 45.644531 L 120.652344 45.707031 C 119.890625 45.851562 119.167969 46.261719 118.496094 46.933594 C 118.15625 47.269531 117.832031 47.671875 117.515625 48.140625 L 117.050781 48.890625 C 116.75 49.421875 116.457031 50.019531 116.175781 50.683594 C 115.773438 51.703125 115.492188 52.753906 115.328125 53.832031 C 115.140625 54.625 115.121094 56.027344 115.277344 58.035156 C 115.675781 60.972656 116.523438 63.550781 117.828125 65.777344 C 119.382812 68.296875 120.523438 69.925781 121.246094 70.660156 C 122.707031 72.183594 123.757812 72.898438 124.394531 72.800781 C 125.074219 72.761719 125.988281 72.203125 127.132812 71.128906 C 130.585938 67.582031 134.066406 63.648438 137.566406 59.320312 C 138.257812 58.390625 138.703125 57.753906 138.902344 57.402344 C 139.035156 57.230469 139.230469 56.828125 139.480469 56.199219 L 139.921875 53.695312 C 139.96875 53.265625 139.96875 52.757812 139.914062 52.175781 C 139.699219 50.558594 139.132812 49.339844 138.21875 48.527344 C 137.300781 47.695312 136.222656 47.375 134.980469 47.5625 C 134.34375 47.636719 133.699219 47.855469 133.042969 48.207031 C 132.714844 48.382812 132.386719 48.59375 132.058594 48.839844 C 131.894531 48.917969 131.394531 49.363281 130.554688 50.175781 C 130.285156 50.410156 129.847656 51.082031 129.242188 52.191406 C 128.9375 52.875 128.746094 53.449219 128.664062 53.90625 C 127.234375 50.742188 125.980469 48.65625 124.898438 47.648438 C 124.269531 46.960938 123.5625 46.386719 122.777344 45.925781 C 122.054688 45.699219 121.566406 45.605469 121.308594 45.644531 "/><path style=" stroke:none;fill-rule:nonzero;fill:#fea6c4;fill-opacity:1;" d="M 64.714844 36.015625 L 64.203125 36.058594 C 62.613281 36.339844 61.566406 37.820312 61.066406 40.507812 C 60.8125 42.324219 60.773438 43.605469 60.941406 44.347656 C 61.070312 45.351562 61.328125 46.339844 61.710938 47.3125 C 63.046875 50.261719 64.582031 52.683594 66.3125 54.578125 C 68.046875 56.464844 70.003906 58.234375 72.183594 59.890625 C 72.894531 60.347656 73.519531 60.578125 74.058594 60.582031 C 74.398438 60.53125 74.699219 60.339844 74.953125 60.007812 L 76.949219 56.816406 C 78.28125 54.558594 79.328125 52.425781 80.085938 50.417969 C 81.566406 46.246094 81.949219 43.101562 81.230469 40.984375 C 80.703125 39.882812 80.121094 39.132812 79.480469 38.738281 C 79.152344 38.515625 78.792969 38.355469 78.410156 38.261719 C 78.253906 38.136719 77.621094 38.136719 76.511719 38.265625 C 75.460938 38.460938 74.582031 39.011719 73.878906 39.90625 C 73.277344 40.640625 72.8125 41.644531 72.480469 42.914062 C 71.390625 40.925781 70.019531 39.160156 68.371094 37.609375 C 67.730469 37.101562 67.136719 36.714844 66.582031 36.445312 C 66.429688 36.34375 66.039062 36.210938 65.410156 36.050781 C 65.167969 36.011719 64.9375 35.996094 64.714844 36.015625 "/><path style=" stroke:none;fill-rule:nonzero;fill:#fea6c4;fill-opacity:1;" d="M 36.742188 62.675781 L 36.609375 62.679688 C 36.324219 62.699219 36.035156 62.765625 35.742188 62.878906 C 35.003906 63.234375 34.558594 63.503906 34.402344 63.683594 C 33.796875 64.175781 33.179688 64.847656 32.546875 65.703125 C 31.519531 67.199219 30.796875 68.9375 30.375 70.925781 C 29.269531 69.03125 28.226562 67.582031 27.25 66.582031 C 25.804688 65.289062 24.6875 64.617188 23.898438 64.566406 C 22.148438 64.605469 20.773438 66.191406 19.769531 69.324219 C 19.46875 70.863281 19.582031 72.644531 20.109375 74.671875 C 20.285156 75.609375 21.128906 77.351562 22.644531 79.902344 C 23.765625 81.648438 25.6875 83.800781 28.410156 86.347656 C 29.027344 86.960938 29.851562 87.570312 30.890625 88.183594 C 31.453125 88.46875 31.9375 88.589844 32.339844 88.546875 C 32.929688 88.558594 33.460938 88.308594 33.933594 87.800781 C 34.191406 87.621094 34.871094 86.476562 35.980469 84.367188 C 37.402344 81.542969 38.335938 79.609375 38.785156 78.554688 C 39.667969 76.285156 40.222656 74.425781 40.449219 72.984375 C 40.925781 70.425781 40.699219 67.894531 39.773438 65.386719 C 39.355469 64.460938 39.085938 63.960938 38.96875 63.882812 C 38.765625 63.613281 38.546875 63.390625 38.316406 63.210938 C 37.851562 62.855469 37.328125 62.675781 36.742188 62.675781 "/></g><mask id="ea72d2e561"><g filter="url(#9de13334fe)"><rect x="0" width="595.5" y="0" height="842.249979" style="fill:#000000;fill-opacity:0.45;stroke:none;"/></g></mask></g></g><g clip-rule="nonzero" clip-path="url(#4cca09b5db)"><g mask="url(#732436a271)" transform="matrix(1,0,0,1,303,702)"><g clip-path="url(#456fed831c)"><g clip-rule="nonzero" clip-path="url(#418e695c1f)"><path style=" stroke:none;fill-rule:nonzero;fill:#b0bdfe;fill-opacity:1;" d="M 14.648438 143.15625 C 14.695312 125.140625 16.011719 109.027344 18.601562 94.820312 C 16.269531 88.09375 15.058594 84.171875 14.96875 83.050781 C 14.582031 81.972656 14.375 78.675781 14.347656 73.15625 C 14.257812 72.238281 14.0625 71.410156 13.757812 70.675781 C 10.847656 65.910156 6.917969 60.757812 1.976562 55.222656 C 0.75 53.0625 0.199219 50.949219 0.332031 48.886719 C 0.480469 46.585938 1.414062 45.996094 3.132812 47.109375 C 5.058594 47.816406 9.304688 51.828125 15.863281 59.148438 C 16.867188 60 17.476562 60.304688 17.695312 60.058594 L 12.644531 37.003906 C 12.722656 32.453125 13.910156 29.875 16.203125 29.273438 C 17.125 29.558594 17.882812 30.65625 18.46875 32.558594 C 22.175781 44.171875 24.046875 50.726562 24.09375 52.222656 C 24.71875 54.101562 25.171875 55.046875 25.449219 55.0625 L 23.207031 30.578125 C 23.128906 27.980469 23.816406 26.574219 25.269531 26.351562 C 26.976562 25.945312 28.769531 28.796875 30.652344 34.914062 C 31.363281 36.472656 32.34375 42.351562 33.59375 52.550781 C 33.929688 54.042969 34.292969 54.753906 34.679688 54.6875 C 35.335938 54.554688 35.894531 53.75 36.351562 52.269531 C 36.863281 45.214844 38.140625 39.136719 40.183594 34.027344 C 42.046875 30.132812 43.574219 29.140625 44.761719 31.050781 C 45.40625 31.742188 45.945312 34.664062 46.378906 39.820312 C 46.125 51.710938 46.230469 59.074219 46.699219 61.910156 C 47.207031 65.199219 48.53125 67.875 50.675781 69.9375 C 52.011719 71.199219 53.542969 71.386719 55.269531 70.496094 L 67.265625 62.5 C 68.65625 62.136719 69.488281 62.570312 69.765625 63.800781 C 69.910156 64.867188 69.71875 65.941406 69.199219 67.023438 C 67.105469 69.320312 64.519531 73.578125 61.445312 79.792969 C 60.613281 81.445312 56.417969 85.332031 48.855469 91.453125 C 47.484375 92.875 46.5625 94.453125 46.085938 96.179688 C 45.324219 115.898438 46.261719 130.949219 48.898438 141.332031 Z M 14.648438 143.15625 "/></g><g clip-rule="nonzero" clip-path="url(#fdda9a6c62)"><path style=" stroke:none;fill-rule:nonzero;fill:#fef49a;fill-opacity:1;" d="M 57.285156 137.996094 C 57.5625 133.335938 57.9375 129.246094 58.414062 125.726562 C 61.101562 110.695312 62.8125 99.125 63.554688 91.003906 C 64.160156 84.8125 64.234375 79.632812 63.773438 75.464844 C 64.371094 74.859375 61.742188 67.132812 55.886719 52.289062 L 42.832031 32.078125 C 41.46875 29.597656 40.757812 27.414062 40.703125 25.53125 C 40.902344 22.417969 42.40625 21.695312 45.210938 23.371094 C 46.414062 23.652344 48.9375 26.902344 52.777344 33.121094 C 50.066406 27.207031 48.28125 22.265625 47.421875 18.296875 C 46.472656 12.953125 46.675781 10.238281 48.027344 10.152344 C 51.648438 11.746094 55.027344 17.101562 58.15625 26.214844 C 55.164062 20.480469 53.503906 16.0625 53.171875 12.964844 C 52.027344 4.804688 52.496094 0.839844 54.574219 1.066406 C 55.929688 1.28125 57.472656 2.929688 59.203125 6.007812 C 64.042969 17.984375 67.675781 26.207031 70.097656 30.679688 L 66.207031 17.109375 C 65.6875 15.1875 65.339844 13.46875 65.164062 11.960938 C 64.675781 7.902344 65.335938 5.359375 67.144531 4.328125 C 69 3.558594 71.140625 5.210938 73.574219 9.285156 C 77.027344 15.421875 80.710938 23.652344 84.625 33.96875 C 85.476562 35.691406 86.367188 36.914062 87.308594 37.632812 C 87.722656 37.839844 87.894531 37.667969 87.832031 37.117188 C 86.773438 33.773438 86.363281 31.554688 86.59375 30.464844 C 86.765625 28.636719 87.363281 26.792969 88.378906 24.941406 C 91.671875 18.835938 94.390625 17.074219 96.535156 19.652344 C 97.507812 22.929688 97.527344 28.019531 96.59375 34.929688 C 96.519531 35.273438 97.4375 39.5 99.351562 47.609375 C 99.613281 48.839844 99.71875 50.007812 99.667969 51.105469 C 99.617188 52.199219 99.449219 53.226562 99.160156 54.1875 C 96.855469 59.679688 95.609375 63.339844 95.421875 65.167969 C 93.796875 74.511719 92.992188 80.007812 93.007812 81.65625 L 91.636719 116.105469 C 91.257812 130.6875 91.566406 138.609375 92.570312 139.867188 Z M 57.285156 137.996094 "/></g><g clip-rule="nonzero" clip-path="url(#a32d3aa51d)"><path style=" stroke:none;fill-rule:nonzero;fill:#ffc0bd;fill-opacity:1;" d="M 119.902344 139.105469 C 120.277344 128.707031 119.960938 117.707031 118.945312 106.097656 L 119.203125 92.113281 C 119.136719 89.324219 118.828125 87.109375 118.273438 85.464844 C 117.527344 83.292969 116.296875 81.605469 114.578125 80.40625 C 103.179688 74.308594 97.375 70.714844 97.164062 69.617188 C 94.125 65.839844 92.734375 62.339844 92.992188 59.113281 C 93.136719 57.429688 93.984375 56.511719 95.539062 56.359375 C 95.710938 55.75 99.125 57.03125 105.773438 60.207031 C 106.988281 60.421875 107.941406 59.75 108.640625 58.195312 C 109.585938 55.53125 110.195312 52.5625 110.464844 49.285156 C 110.566406 32.710938 110.871094 23.875 111.382812 22.785156 C 112.03125 18.089844 113.085938 15.25 114.554688 14.273438 C 116.300781 13.511719 117.863281 14.894531 119.246094 18.421875 C 119.566406 18.878906 120.613281 22.066406 122.382812 27.988281 C 122.632812 28.527344 123.40625 31.960938 124.703125 38.296875 C 124.933594 39.230469 125.121094 39.535156 125.269531 39.214844 L 125.15625 24.992188 C 125.25 22.644531 125.441406 20.714844 125.726562 19.210938 C 127.148438 12.792969 128.960938 9.25 131.164062 8.582031 C 133.578125 8.203125 134.089844 18.753906 132.695312 40.238281 C 132.292969 28.425781 135.441406 19.8125 142.140625 14.398438 C 143.441406 13.410156 144.089844 15.84375 144.09375 21.699219 C 144.269531 25.039062 143.667969 32.066406 142.296875 42.792969 C 146.851562 35.414062 150.523438 30.992188 153.3125 29.527344 C 158.132812 26.710938 161.226562 26.777344 162.585938 29.730469 C 162.761719 31.691406 162.292969 33.5625 161.175781 35.34375 C 161.117188 36.230469 157.113281 41.589844 149.160156 51.429688 C 147.371094 54.308594 146.457031 56.851562 146.417969 59.050781 L 146.65625 69.886719 C 145.550781 81.480469 145.25 87.78125 145.75 88.789062 L 153.253906 122.75 C 154.644531 129.488281 155.53125 135.53125 155.917969 140.878906 Z M 119.902344 139.105469 "/></g><path style=" stroke:none;fill-rule:nonzero;fill:#fea6c4;fill-opacity:1;" d="M 121.421875 45.539062 L 120.765625 45.601562 C 120.003906 45.75 119.28125 46.160156 118.609375 46.832031 C 118.269531 47.167969 117.945312 47.570312 117.628906 48.035156 L 117.164062 48.785156 C 116.863281 49.320312 116.570312 49.917969 116.289062 50.582031 C 115.886719 51.597656 115.605469 52.648438 115.441406 53.730469 C 115.253906 54.523438 115.238281 55.925781 115.394531 57.933594 C 115.789062 60.871094 116.636719 63.449219 117.941406 65.675781 C 119.496094 68.195312 120.636719 69.820312 121.359375 70.554688 C 122.820312 72.082031 123.871094 72.796875 124.507812 72.699219 C 125.1875 72.660156 126.101562 72.101562 127.246094 71.027344 C 130.703125 67.480469 134.179688 63.542969 137.679688 59.21875 C 138.371094 58.289062 138.816406 57.648438 139.015625 57.296875 C 139.148438 57.125 139.34375 56.726562 139.597656 56.097656 L 140.035156 53.59375 C 140.082031 53.160156 140.082031 52.65625 140.027344 52.074219 C 139.8125 50.453125 139.246094 49.238281 138.332031 48.425781 C 137.417969 47.59375 136.335938 47.273438 135.09375 47.457031 C 134.457031 47.535156 133.8125 47.75 133.15625 48.105469 C 132.832031 48.28125 132.5 48.492188 132.171875 48.734375 C 132.007812 48.816406 131.507812 49.261719 130.667969 50.070312 C 130.398438 50.308594 129.960938 50.980469 129.355469 52.089844 C 129.050781 52.773438 128.859375 53.34375 128.777344 53.804688 C 127.347656 50.636719 126.09375 48.554688 125.011719 47.546875 C 124.382812 46.859375 123.675781 46.285156 122.890625 45.824219 C 122.167969 45.597656 121.679688 45.5 121.421875 45.539062 "/><path style=" stroke:none;fill-rule:nonzero;fill:#fea6c4;fill-opacity:1;" d="M 64.828125 35.914062 L 64.316406 35.953125 C 62.726562 36.234375 61.679688 37.71875 61.179688 40.40625 C 60.925781 42.222656 60.886719 43.5 61.054688 44.246094 C 61.183594 45.25 61.441406 46.238281 61.824219 47.207031 C 63.160156 50.160156 64.695312 52.582031 66.425781 54.476562 C 68.160156 56.359375 70.117188 58.132812 72.296875 59.785156 C 73.007812 60.246094 73.632812 60.476562 74.171875 60.476562 C 74.511719 60.429688 74.8125 60.238281 75.066406 59.902344 L 77.0625 56.710938 C 78.394531 54.457031 79.441406 52.324219 80.199219 50.3125 C 81.679688 46.144531 82.0625 43 81.34375 40.882812 C 80.816406 39.78125 80.234375 39.03125 79.597656 38.636719 C 79.265625 38.414062 78.90625 38.253906 78.523438 38.160156 C 78.367188 38.03125 77.734375 38.03125 76.625 38.160156 C 75.574219 38.359375 74.695312 38.90625 73.992188 39.804688 C 73.390625 40.539062 72.925781 41.542969 72.597656 42.8125 C 71.503906 40.824219 70.132812 39.054688 68.484375 37.507812 C 67.84375 37 67.25 36.609375 66.695312 36.34375 C 66.542969 36.238281 66.152344 36.109375 65.527344 35.949219 C 65.28125 35.90625 65.050781 35.894531 64.828125 35.914062 "/><path style=" stroke:none;fill-rule:nonzero;fill:#fea6c4;fill-opacity:1;" d="M 36.859375 62.574219 L 36.722656 62.578125 C 36.4375 62.597656 36.148438 62.664062 35.855469 62.773438 C 35.117188 63.132812 34.671875 63.398438 34.515625 63.578125 C 33.914062 64.074219 33.292969 64.746094 32.660156 65.601562 C 31.636719 67.09375 30.910156 68.835938 30.488281 70.824219 C 29.382812 68.925781 28.339844 67.480469 27.363281 66.476562 C 25.917969 65.183594 24.800781 64.515625 24.011719 64.464844 C 22.265625 64.503906 20.886719 66.089844 19.882812 69.222656 C 19.582031 70.757812 19.695312 72.542969 20.222656 74.566406 C 20.398438 75.507812 21.242188 77.25 22.757812 79.800781 C 23.878906 81.546875 25.800781 83.695312 28.523438 86.246094 C 29.140625 86.859375 29.964844 87.46875 31.003906 88.082031 C 31.566406 88.367188 32.050781 88.488281 32.453125 88.445312 C 33.042969 88.453125 33.574219 88.203125 34.046875 87.695312 C 34.304688 87.519531 34.984375 86.375 36.09375 84.261719 C 37.515625 81.441406 38.449219 79.503906 38.898438 78.453125 C 39.78125 76.179688 40.335938 74.324219 40.5625 72.882812 C 41.039062 70.324219 40.8125 67.789062 39.886719 65.285156 C 39.46875 64.359375 39.199219 63.855469 39.082031 63.777344 C 38.878906 63.511719 38.664062 63.289062 38.429688 63.109375 C 37.964844 62.753906 37.441406 62.574219 36.859375 62.574219 "/></g><mask id="732436a271"><g filter="url(#9de13334fe)"><rect x="0" width="595.5" y="0" height="842.249979" style="fill:#000000;fill-opacity:0.45;stroke:none;"/></g></mask></g></g></g></svg>